<?xml version="1.0" encoding="utf-8"?>
<!-- Generator: Adobe Illustrator 16.0.0, SVG Export Plug-In . SVG Version: 6.00 Build 0)  -->
<!DOCTYPE svg PUBLIC "-//W3C//DTD SVG 1.1//EN" "http://www.w3.org/Graphics/SVG/1.1/DTD/svg11.dtd">
<svg version="1.1" id="Layer_1" xmlns="http://www.w3.org/2000/svg" xmlns:xlink="http://www.w3.org/1999/xlink" x="0px" y="0px"
	 width="1465px" height="787.19px" viewBox="0 0 1465 787.19" enable-background="new 0 0 1465 787.19" xml:space="preserve">
<g>
	<path fill-rule="evenodd" clip-rule="evenodd" fill="#FFFFFF" d="M1399.56,422.928c-16.943,25.939-33.267,50.976-49.623,75.97
		c-5.154,7.882-5.235,7.867-10.446-0.099c-14.334-21.918-28.631-43.871-42.956-65.793c-1.681-2.582-3.466-5.087-5.759-8.425
		c-1.945,3.682-1.256,6.8-1.262,9.703c-0.061,34.172-0.219,68.348,0.119,102.519c0.07,6.824-2.021,8.866-8.67,8.685
		c-14.508-0.393-29.041-0.292-43.564-0.042c-5.391,0.095-7.4-1.457-7.383-7.227c0.181-68.337,0.185-136.681-0.008-205.028
		c-0.018-5.718,1.769-7.157,7.233-7.053c17.08,0.315,34.172,0.271,51.252,0.012c4.606-0.072,6.813,1.57,9.19,5.516
		c15.387,25.609,31.189,50.967,47.657,77.719c10.138-16.433,19.61-31.813,29.095-47.18c6.457-10.469,12.902-20.957,19.407-31.399
		c1.79-2.873,3.753-4.778,7.892-4.698c17.361,0.343,34.743,0.351,52.109,0.025c5.345-0.102,6.672,1.583,6.658,6.759
		c-0.161,68.346-0.186,136.692,0.024,205.036c0.021,6.214-2.182,7.657-7.881,7.538c-14.515-0.301-29.052-0.367-43.564,0.024
		c-6.274,0.172-8.264-1.604-8.2-8.123c0.328-34.732,0.178-69.482,0.108-104.227C1400.982,430.151,1401.813,426.995,1399.56,422.928z
		"/>
	<path fill-rule="evenodd" clip-rule="evenodd" fill="#FFFFFF" d="M254.815,595.633c-63.413,1.121-126.873,1.737-187.32-22.458
		c-11.41-4.571-21.983-10.687-31.686-18.296c-29.397-23.078-35.872-56.924-22.954-90.844c9.513-24.986,24.875-46.12,42.229-66.238
		c33.216-38.503,72.772-69.527,113.82-98.932c39.633-28.389,81.418-53.256,124.044-76.847c44.402-24.573,90.1-46.422,136.413-67.073
		c4.098-1.828,6.847-1.48,9.704,1.753c5.415,6.139,11.115,12.032,16.428,18.26c4.541,5.325-1.711,5.521-3.914,6.558
		c-28.311,13.347-56.283,27.354-83.811,42.239c-64.462,34.86-126.717,73.136-183.306,120.006
		c-31.902,26.421-61.579,55.002-84.237,90.11c-11.881,18.408-20.893,38.158-22,60.171c-0.831,16.521,4.572,31.986,15.263,45.122
		c22.405,27.52,54.173,37.258,86.751,45.031c21.292,5.086,42.953,8.25,64.908,8.564C248.677,592.81,251.522,594.543,254.815,595.633
		z"/>
	<path fill-rule="evenodd" clip-rule="evenodd" fill="#FFFFFF" d="M669.371,545.357c-8.826,0-17.66-0.164-26.477,0.064
		c-4.351,0.118-6.698-1.473-8.249-5.596c-3.502-9.308-7.614-18.397-11.166-27.694c-1.54-4.032-3.794-5.619-8.212-5.58
		c-23.634,0.192-47.272,0.199-70.907-0.004c-4.705-0.042-7.22,1.475-8.841,5.955c-3.289,9.083-7.337,17.9-10.598,27.001
		c-1.629,4.529-4.231,5.983-8.88,5.936c-17.365-0.18-34.742-0.143-52.107,0.037c-4.477,0.046-6.212-0.462-4.051-5.51
		c12.218-28.477,24.153-57.07,36.224-85.6c14.474-34.218,28.994-68.415,43.489-102.621c1.091-2.573,0.656-2.733,10.237-22.08
		c4.334-7.381,12.171-5.34,12.171-5.34s30.834,0.498,40.217,0.105c5.201-0.217,8.365,1.194,10.448,6.244
		c11.283,27.371,22.782,54.65,34.271,81.936c11.6,27.548,23.274,55.053,34.906,82.587c6.191,14.657,12.166,29.422,18.63,43.966
		c2.54,5.717,0.08,6.319-4.622,6.25c-8.823-0.119-17.653-0.037-26.482-0.037C669.371,545.374,669.371,545.363,669.371,545.357z
		 M579.887,398.68c-7.78,19.575-14.678,36.918-21.56,54.266c-1.051,2.641-1.673,4.945,2.648,4.911
		c12.469-0.092,24.94-0.063,37.406-0.008c3.031,0.011,4.188-0.994,2.995-4.049C594.487,436.176,587.633,418.553,579.887,398.68z"/>
	<path fill-rule="evenodd" clip-rule="evenodd" fill="#FFFFFF" d="M1001.113,322.74c29.846,0.315,57.517,7.428,82.328,24.935
		c5.297,3.739,4.422,5.962,1.563,9.945c-7.798,10.872-15.742,21.652-23.061,32.841c-3.208,4.902-5.676,4.539-10.074,1.762
		c-17.371-10.973-35.979-18.225-57.015-17.389c-3.731,0.151-7.378,0.499-10.796,2.118c-4.352,2.058-7.823,4.797-7.55,10.243
		c0.252,5.036,1.884,8.905,6.81,11.62c11.248,6.192,23.733,8.196,35.899,10.995c20.05,4.621,39.77,10.271,56.051,23.106
		c16.702,13.149,21.964,32.066,18.619,52.265c-6.196,37.457-30.81,58.717-69.065,62.634c-41.864,4.28-80.148-4.147-114.422-29.446
		c-7.049-5.195-5.883-8.905-1.002-14.307c8.502-9.405,17.238-18.691,24.683-28.899c3.167-4.348,5.436-3.381,7.951-1.349
		c15.417,12.438,33.156,19.55,52.465,22.66c9.171,1.479,18.678,2.085,27.607-1.46c4.938-1.973,9.577-4.656,9.993-11.273
		c0.413-6.659-3.485-9.944-8.586-12.351c-11.661-5.507-24.331-7.689-36.704-10.821c-13.799-3.485-27.253-7.752-40.19-13.875
		c-38.883-18.388-39.583-67.393-20.24-93.003c13.613-18.014,31.976-26.203,53.646-29.375
		C987.085,323.283,994.041,322.983,1001.113,322.74z"/>
	<path fill-rule="evenodd" clip-rule="evenodd" fill="#FFFFFF" d="M247.12,326.264c22.09,0,43.108,0.131,64.125-0.098
		c5.075-0.058,6.172,3.417,7.354,6.719c12.102,33.878,24.05,67.806,36.085,101.705c3.071,8.655,6.306,17.255,9.924,27.134
		c7.268-20.03,14.288-39.059,21.083-58.179c8.221-23.114,16.229-46.309,24.385-69.453c1.894-5.381,4.795-8.289,11.566-8.065
		c19.324,0.639,38.684,0.228,59.085,0.228c-4.33,10.888-8.363,21.148-12.473,31.368c-24.291,60.418-48.691,120.796-72.759,181.296
		c-2.396,6.032-5.465,8.204-11.877,7.994c-13.933-0.448-27.893-0.269-41.834-0.073c-4.337,0.063-6.573-1.455-8.217-5.557
		C305.031,470.049,276.346,398.876,247.12,326.264z"/>
	<path fill-rule="evenodd" clip-rule="evenodd" fill="#FFFFFF" d="M787.266,326.255c29.334,0,58.669,0.158,87.992-0.136
		c5.935-0.06,7.847,1.473,7.637,7.547c-0.462,13.37-0.364,26.767-0.038,40.148c0.129,5.328-1.867,6.953-6.915,6.897
		c-16.237-0.178-32.475,0.278-48.692-0.203c-7.339-0.217-9.724,1.734-9.664,9.478c0.368,48.408-0.018,96.823,0.376,145.231
		c0.063,8.414-2.521,10.705-10.612,10.319c-13.357-0.623-26.777-0.609-40.138-0.004c-8.039,0.368-10.701-1.807-10.628-10.302
		c0.409-48.408,0.018-96.823,0.384-145.231c0.056-7.719-2.293-9.719-9.652-9.492c-15.93,0.492-31.888-0.045-47.834,0.246
		c-5.856,0.105-8.004-1.692-7.81-7.782c0.417-13.087,0.443-26.204-0.012-39.29c-0.212-6.053,1.662-7.626,7.615-7.565
		C728.605,326.415,757.938,326.255,787.266,326.255z"/>
	<path fill-rule="evenodd" clip-rule="evenodd" fill="#FFFFFF" d="M53.365,370.021c4.163-29.083,13.17-56.432,26.672-82.496
		c18.526-35.764,44.355-65.068,76.498-88.998c29.699-22.109,63.051-36.435,99.073-44.092c19.249-4.097,39.055-6.274,58.744-5.358
		c19.557,0.909,39.117,3.172,58.185,8.266c1.787,0.477,3.383,0.962,3.557,2.854c0.154,1.689-1.646,2.14-2.841,2.733
		c-20.653,10.211-41.292,20.463-62.05,30.464c-2.425,1.167-5.52,1.135-8.322,1.281c-82.062,4.231-142.847,42.628-182.969,114.05
		c-2.704,4.813-5.74,8.945-10.074,12.396c-17.817,14.187-34.905,29.208-50.923,45.425C57.446,368.037,56.377,370.472,53.365,370.021
		z"/>
	<path fill-rule="evenodd" clip-rule="evenodd" fill="#FFFFFF" d="M156.636,612.121c20.236,4.119,73.692,1.916,80.113,1.374
		c21.401-1.822,41.966,4.764,63.121,5.419c48.661,1.492,92.485-12.303,132.098-40.226C433.573,577.558,437.95,573.2,445,567
		s15.693-5.596,30.552-4.73c11.575,0.663,23.223,0.128,35.243,0.128C431.394,675.298,261.348,696.726,156.636,612.121z"/>
	<path fill-rule="evenodd" clip-rule="evenodd" fill="#FFFFFF" d="M1190.371,435.434c0,33.604-0.182,67.219,0.15,100.819
		c0.07,6.831-1.373,9.563-8.799,9.276c-14.783-0.554-29.615-0.326-44.416-0.084c-5.615,0.095-8.053-1.328-8.035-7.599
		c0.2-68.354,0.192-136.711-0.004-205.067c-0.018-5.384,1.549-6.736,6.711-6.635c15.664,0.301,31.332,0.394,46.993-0.035
		c6.086-0.168,7.581,1.727,7.532,7.645C1190.227,367.645,1190.371,401.542,1190.371,435.434z"/>
	<path fill-rule="evenodd" clip-rule="evenodd" fill="#FFFFFF" d="M616.943,105.081c5.059-2.483,11.11-8.381,15.021-2.325
		c4.208,6.516-3.601,9.974-8.362,12.026c-13.094,5.638-9.943,17.394-11.844,27.574c5.012-0.83,10.972-6.023,13.865,0.154
		c2.95,6.299-3.879,9.341-8.467,11.76c-6.454,3.4-9.243,8.145-9.943,15.443c-0.781,8.127-3.104,16.112-4.944,24.118
		c-1.071,4.64-3.539,8.109-9.805,9.064c7.721-12.725,1.932-24.683,0.28-36.6c-2.441-17.666-5.854-35.172-11.012-53.451
		c-17.037,10.554-33.289,20.947-49.858,30.802c-18.618,11.073-38.263,19.964-58.918,26.663c-6,1.949-10.061,1.199-14.007-3.993
		c-5.16-6.786-11.249-12.849-16.643-19.468c-1.7-2.088-6.137-4.135-3.564-7.185c2.231-2.643,5.984-4.753,10.413-3.203
		c8.672,3.034,17.563,5.482,26.145,8.749c5.291,2.015,9.343,1.286,14.035-1.869c40.85-27.453,81.658-54.986,122.941-81.788
		c14.988-9.728,29.165-20.852,45.455-28.515c7.933-3.733,16.196-6.182,25.117-5.881c7.382,0.246,8.966,2.501,5.279,9.352
		c-5.646,10.484-14.144,18.549-23.985,25.021c-10.936,7.19-21.892,14.461-33.422,20.598
		C621.329,87.122,615.472,93.302,616.943,105.081z"/>
	<path fill-rule="evenodd" clip-rule="evenodd" fill="#FFFFFF" d="M581.298,46.95c7.04,3.708,13.557,7.462,20.363,10.6
		c3.896,1.802,5.421,3.283,1.17,6.119c-10.175,6.786-20.454,13.406-30.599,20.232c-5.003,3.366-7.303-0.992-10.011-3.408
		c-23.123-20.665-46.212-41.378-69.141-62.257c-6.065-5.52-12.343-9.975-21.795-9.229c4.643-6.035,9.287-6.584,15.516-4.256
		c8.643,3.235,17.314,6.354,25.525,10.573c6.704,3.442,13.099,5.901,19.193-1.15c1.016-1.174,3.085-1.372,4.414-2.363
		c4.355-3.258,7.116-0.906,10.092,2.284c3.463,3.716,0.99,6.873-1.368,8.792c-4.875,3.971-3.503,5.771,1.373,7.723
		c5.181,2.074,10.283,4.377,15.296,6.825c2.773,1.356,5.071,2.076,7.405-0.764c0.829-1.008,2.377-1.42,3.587-2.12
		c5.08-2.93,10.521-9.332,16.045-2.667C594.461,39.247,585.668,42.278,581.298,46.95z"/>
	<path fill="#FFFFFF" d="M748.274,602.467h29.635L816.068,747.4h-24.153l-8.934-35.523h-42.425L731.22,747.4h-24.157
		L748.274,602.467z M779.125,693.405l-16.639-71.446h-0.41l-17.256,71.446H779.125z"/>
	<path fill="#FFFFFF" d="M824.787,638.194h21.918v17.053h0.406c4.875-12.177,12.993-19.894,25.372-19.894
		c2.435,0,3.854,0.41,5.275,0.816v22.328c-1.614-0.41-5.479-1.22-9.129-1.22c-9.944,0-21.925,4.468-21.925,24.76V747.4h-21.918
		V638.194z"/>
	<path fill="#FFFFFF" d="M909.416,756.74c0,6.7,6.095,12.985,15.837,12.985c11.367,0,18.472-7.91,18.472-20.497v-17.662h-0.41
		c-4.057,9.545-14.208,15.028-24.756,15.028c-25.579,0-32.683-25.176-32.683-55.019c0-23.95,3.649-56.223,34.704-56.223
		c12.789,0,21.929,8.319,23.953,16.243h0.406v-13.402h20.703v103.931c0,26.588-11.361,42.628-40.8,42.628
		c-32.476,0-36.126-19.084-36.126-28.013H909.416z M924.843,729.132c17.049,0,18.882-21.516,18.882-38.771
		c0-17.858-2.232-37.549-17.459-37.549c-15.837,0-18.472,16.232-18.472,36.536C907.794,708.023,908.61,729.132,924.843,729.132z"/>
	<path fill="#FFFFFF" d="M1003.999,695.643v6.289c0,14.618,1.823,33.292,18.27,33.292c15.63,0,17.452-17.865,17.452-24.356h20.71
		c0,24.153-14.622,39.374-38.365,39.374c-17.869,0-39.99-5.275-39.99-55.823c0-28.613,6.092-59.064,40.39-59.064
		c30.452,0,38.568,18.268,38.568,48.72v11.569H1003.999z M1039.114,680.619v-5.889c0-13.802-4.466-24.352-16.846-24.352
		c-14.015,0-18.27,13.801-18.27,28.013v2.228H1039.114z"/>
	<path fill="#FFFFFF" d="M1079.086,638.194h20.708v12.789h0.612c5.479-9.741,15.824-15.63,28.011-15.63
		c16.639,0,27.2,7.514,27.2,29.635V747.4h-21.925v-74.897c0-14.212-4.264-19.69-15.225-19.69c-8.933,0-17.459,7.104-17.459,21.315
		V747.4h-21.923V638.194z"/>
	<path fill="#FFFFFF" d="M1166.971,638.194h15.018v-31.054h21.924v31.054h17.859v16.243h-17.859v65.159
		c0,8.523,2.437,11.571,9.949,11.571c3.245,0,5.883-0.204,7.91-0.613v16.242c-4.665,1.217-10.754,1.819-17.656,1.819
		c-14.819,0-22.127-4.057-22.127-26.385v-67.794h-15.018V638.194z"/>
	<path fill="#FFFFFF" d="M1234.147,600.842h21.926v21.929h-21.926V600.842z M1234.147,638.194h21.926V747.4h-21.926V638.194z"/>
	<path fill="#FFFFFF" d="M1278.184,638.194h20.711v12.789h0.604c5.484-9.741,15.832-15.63,28.02-15.63
		c16.639,0,27.189,7.514,27.189,29.635V747.4h-21.918v-74.897c0-14.212-4.263-19.69-15.223-19.69
		c-8.931,0-17.457,7.104-17.457,21.315V747.4h-21.926V638.194z"/>
	<path fill="#FFFFFF" d="M1447.464,724.666c0,4.057,2.436,7.717,5.682,7.717c1.422,0,2.844-0.203,3.655-0.613v14.209
		c-2.643,1.219-6.496,2.638-10.76,2.638c-9.741,0-17.859-3.854-18.472-14.411h-0.404c-5.886,10.761-14.407,16.036-27.198,16.036
		c-17.456,0-28.416-9.741-28.416-30.645c0-24.359,10.55-29.438,25.375-34.308l17.049-4.67c7.913-2.228,12.789-4.47,12.789-14.005
		c0-9.949-3.457-16.235-15.027-16.235c-14.611,0-16.643,10.347-16.643,20.905h-20.703c0-23.142,9.542-35.931,38.367-35.931
		c19.278,0,34.706,7.514,34.706,26.794V724.666z M1426.764,689.755c-5.686,4.47-17.867,7.107-24.359,10.151
		c-6.299,3.037-8.937,9.539-8.937,17.655c0,9.14,4.467,16.446,13.604,16.446c13.191,0,19.691-9.945,19.691-25.984V689.755z"/>
</g>
</svg>
